<svg width="24" height="24" viewBox="0 0 24 24" fill="none" xmlns="http://www.w3.org/2000/svg">
<path d="M12.0005 0C8.73876 0 8.33226 0.01575 7.05576 0.06975C5.77401 0.13275 4.90701 0.3315 4.14201 0.6285C3.34136 0.930765 2.61626 1.40401 2.01726 2.01525C1.40432 2.61285 0.930812 3.33835 0.630514 4.14C0.333514 4.905 0.134764 5.772 0.0717642 7.05375C0.0140142 8.331 0.00201416 8.73675 0.00201416 11.9985C0.00201416 15.2603 0.0177642 15.6667 0.0717642 16.9432C0.134764 18.2213 0.333514 19.092 0.630514 19.857C0.932779 20.6577 1.40603 21.3828 2.01726 21.9818C2.61486 22.5947 3.34036 23.0682 4.14201 23.3685C4.90701 23.6618 5.77776 23.8643 7.05576 23.9272C8.33301 23.985 8.73876 23.997 12.0005 23.997C15.2623 23.997 15.6688 23.9813 16.9453 23.9272C18.2233 23.8643 19.094 23.661 19.859 23.3685C20.6597 23.0662 21.3848 22.593 21.9838 21.9818C22.5975 21.3848 23.0711 20.6591 23.3705 19.857C23.6638 19.092 23.8663 18.2213 23.9293 16.9432C23.987 15.666 23.999 15.2603 23.999 11.9985C23.999 8.73675 23.9833 8.33025 23.9293 7.05375C23.8663 5.77575 23.663 4.9005 23.3705 4.14C23.0682 3.33935 22.595 2.61425 21.9838 2.01525C21.3868 1.40152 20.6611 0.927885 19.859 0.6285C19.094 0.3315 18.2233 0.13275 16.9453 0.06975C15.668 0.012 15.2623 0 12.0005 0ZM12.0005 2.16C15.2038 2.16 15.5863 2.17575 16.8523 2.22975C18.02 2.2845 18.656 2.4795 19.0783 2.6445C19.6003 2.83719 20.0728 3.14389 20.4613 3.54225C20.8589 3.92912 21.1645 4.40051 21.3553 4.9215C21.5203 5.34375 21.7153 5.97975 21.77 7.1475C21.824 8.4135 21.8398 8.79675 21.8398 11.9992C21.8398 15.2017 21.824 15.585 21.7655 16.851C21.7025 18.0188 21.5075 18.6548 21.3433 19.077C21.116 19.6403 20.8625 20.034 20.444 20.46C20.0542 20.8559 19.582 21.1611 19.061 21.354C18.644 21.519 17.999 21.714 16.8268 21.7687C15.554 21.8228 15.179 21.8385 11.9675 21.8385C8.75601 21.8385 8.38176 21.8228 7.10751 21.7642C5.93976 21.7013 5.29551 21.5063 4.87326 21.342C4.30326 21.1147 3.91251 20.8612 3.49401 20.4427C3.07176 20.0205 2.80326 19.6185 2.59626 19.0597C2.42826 18.6427 2.23626 17.9977 2.17401 16.8255C2.13126 15.5677 2.11101 15.1778 2.11101 11.9813C2.11101 8.78625 2.13126 8.3955 2.17401 7.122C2.23626 5.94975 2.42826 5.30625 2.59626 4.88775C2.80326 4.317 3.07251 3.927 3.49401 3.50475C3.91176 3.087 4.30326 2.817 4.87326 2.6055C5.29551 2.44125 5.92401 2.24625 7.09626 2.18775C8.36901 2.142 8.74401 2.1255 11.951 2.1255L12.0005 2.16ZM12.0005 5.84025C11.1915 5.83995 10.3904 5.99908 9.64293 6.30853C8.89546 6.61798 8.2163 7.0717 7.64425 7.64374C7.07221 8.21578 6.6185 8.89495 6.30904 9.64242C5.99959 10.3899 5.84047 11.191 5.84076 12C5.84047 12.809 5.99959 13.6101 6.30904 14.3576C6.6185 15.1051 7.07221 15.7842 7.64425 16.3563C8.2163 16.9283 8.89546 17.382 9.64293 17.6915C10.3904 18.0009 11.1915 18.16 12.0005 18.1597C12.8095 18.16 13.6106 18.0009 14.3581 17.6915C15.1056 17.382 15.7847 16.9283 16.3568 16.3563C16.9288 15.7842 17.3825 15.1051 17.692 14.3576C18.0014 13.6101 18.1606 12.809 18.1603 12C18.1606 11.191 18.0014 10.3899 17.692 9.64242C17.3825 8.89495 16.9288 8.21578 16.3568 7.64374C15.7847 7.0717 15.1056 6.61798 14.3581 6.30853C13.6106 5.99908 12.8095 5.83995 12.0005 5.84025ZM12.0005 15.9998C9.78951 15.9998 8.00076 14.211 8.00076 12C8.00076 9.789 9.78951 8.00025 12.0005 8.00025C14.2115 8.00025 16.0003 9.789 16.0003 12C16.0003 14.211 14.2115 15.9998 12.0005 15.9998ZM19.8485 5.59425C19.8481 5.9765 19.696 6.34296 19.4256 6.6131C19.1551 6.88326 18.7885 7.035 18.4063 7.035C18.2173 7.035 18.0301 6.99777 17.8555 6.92544C17.6809 6.85311 17.5222 6.7471 17.3886 6.61345C17.2549 6.47981 17.1489 6.32115 17.0766 6.14653C17.0042 5.97191 16.967 5.78475 16.967 5.59575C16.967 5.40674 17.0042 5.21959 17.0766 5.04497C17.1489 4.87036 17.2549 4.71169 17.3886 4.57805C17.5222 4.4444 17.6809 4.33839 17.8555 4.26606C18.0301 4.19373 18.2173 4.1565 18.4063 4.1565C19.199 4.1565 19.8485 4.8015 19.8485 5.59425Z" fill="black" fill-opacity="0.8"/>
</svg>
