<svg width="16" height="16" viewBox="0 0 16 16" fill="none" xmlns="http://www.w3.org/2000/svg">
<path fill-rule="evenodd" clip-rule="evenodd" d="M10.146 11.354C10.0994 11.3075 10.0625 11.2524 10.0373 11.1916C10.0121 11.1309 9.9991 11.0658 9.9991 11C9.9991 10.9342 10.0121 10.8691 10.0373 10.8084C10.0625 10.7476 10.0994 10.6924 10.146 10.646L12.793 7.99999L10.146 5.35399C10.0995 5.3075 10.0626 5.25231 10.0375 5.19158C10.0123 5.13084 9.99936 5.06574 9.99936 4.99999C9.99936 4.93425 10.0123 4.86915 10.0375 4.80841C10.0626 4.74767 10.0995 4.69248 10.146 4.64599C10.1925 4.5995 10.2477 4.56263 10.3084 4.53747C10.3691 4.51231 10.4342 4.49936 10.5 4.49936C10.5657 4.49936 10.6308 4.51231 10.6916 4.53747C10.7523 4.56263 10.8075 4.5995 10.854 4.64599L13.854 7.64599C13.9006 7.69244 13.9375 7.74761 13.9627 7.80836C13.9879 7.8691 14.0009 7.93422 14.0009 7.99999C14.0009 8.06576 13.9879 8.13088 13.9627 8.19163C13.9375 8.25237 13.9006 8.30755 13.854 8.35399L10.854 11.354C10.8075 11.4006 10.7524 11.4375 10.6916 11.4627C10.6309 11.4879 10.5658 11.5009 10.5 11.5009C10.4342 11.5009 10.3691 11.4879 10.3084 11.4627C10.2476 11.4375 10.1924 11.4006 10.146 11.354Z" fill="black" fill-opacity="0.8"/>
<path fill-rule="evenodd" clip-rule="evenodd" d="M13.5 8C13.5 8.13261 13.4473 8.25979 13.3536 8.35355C13.2598 8.44732 13.1326 8.5 13 8.5L2.5 8.5C2.36739 8.5 2.24021 8.44732 2.14645 8.35355C2.05268 8.25979 2 8.13261 2 8C2 7.86739 2.05268 7.74021 2.14645 7.64645C2.24021 7.55268 2.36739 7.5 2.5 7.5L13 7.5C13.1326 7.5 13.2598 7.55268 13.3536 7.64645C13.4473 7.74021 13.5 7.86739 13.5 8Z" fill="black" fill-opacity="0.8"/>
</svg>
