<svg width="24" height="24" viewBox="0 0 24 24" fill="none" xmlns="http://www.w3.org/2000/svg">
<path d="M11.003 7.054V4C11.003 3.80225 10.9443 3.60895 10.8344 3.44454C10.7245 3.28013 10.5684 3.15199 10.3857 3.07632C10.203 3.00065 10.0019 2.98085 9.80798 3.01942C9.61402 3.05798 9.43586 3.15319 9.29601 3.293L2.29601 10.293C2.20306 10.3858 2.12933 10.496 2.07901 10.6173C2.0287 10.7386 2.00281 10.8687 2.00281 11C2.00281 11.1313 2.0287 11.2614 2.07901 11.3827C2.12933 11.504 2.20306 11.6142 2.29601 11.707L9.29601 18.707C9.43567 18.8473 9.61387 18.9429 9.80799 18.9818C10.0021 19.0206 10.2034 19.0009 10.3863 18.9252C10.5692 18.8494 10.7254 18.721 10.8353 18.5563C10.9451 18.3916 11.0034 18.198 11.003 18V14.904C11.287 14.884 11.568 14.875 11.846 14.875C17.272 14.875 20.085 18.447 20.208 18.605C20.3341 18.7717 20.5094 18.8946 20.7092 18.9561C20.9089 19.0177 21.123 19.0148 21.321 18.948C21.5197 18.8814 21.6924 18.754 21.8148 18.5839C21.9371 18.4138 22.003 18.2095 22.003 18C22.003 8.876 13.917 7.319 11.003 7.054ZM11.846 12.875C11.199 12.875 10.534 12.92 9.87101 13.008C9.63074 13.0402 9.41032 13.1585 9.25068 13.341C9.09104 13.5234 9.00304 13.7576 9.00301 14V15.586L4.41701 11L9.00301 6.414V8C9.00301 8.552 9.47401 9 10.025 9C10.935 9 18.139 9.201 19.704 15.425C18.05 14.207 15.423 12.875 11.846 12.875Z" fill="black" fill-opacity="0.8"/>
</svg>
