<svg width="57" height="57" viewBox="0 0 57 57" fill="none" xmlns="http://www.w3.org/2000/svg">
<rect x="28.4565" width="40" height="40" transform="rotate(45.35 28.4565 0)" fill="#F8A5C2"/>
<rect x="42.6505" y="3.91992" width="40" height="40" transform="rotate(75.5268 42.6505 3.91992)" fill="#F8A5C2"/>
<rect x="53.6373" y="15.746" width="40" height="40" transform="rotate(108.687 53.6373 15.746)" fill="#F8A5C2"/>
<path d="M28 20.3066C36.57 20.3066 43.16 23.973 43.16 28C43.16 32.0269 36.565 35.6934 28 35.6934C19.43 35.6934 12.84 32.0269 12.84 28C12.84 23.973 19.435 20.3066 28 20.3066ZM28 19.4535C19.165 19.4535 12 23.2773 12 28C12 32.7227 19.165 36.5465 28 36.5465C36.835 36.5465 44 32.7227 44 28C44 23.2773 36.835 19.4535 28 19.4535ZM22.91 27.3144C22.515 29.3711 21.12 29.1578 19.405 29.1578L20.09 25.5727C21.99 25.5727 23.28 25.3644 22.91 27.3144ZM16.87 32.7887H18.705L19.14 30.5137C21.195 30.5137 22.47 30.666 23.65 29.5437C24.955 28.325 25.295 26.1566 24.365 25.0699C23.88 24.5012 23.1 24.2219 22.04 24.2219H18.505L16.87 32.7887ZM26.155 21.9418H27.98L27.545 24.2168C29.12 24.2168 30.58 24.1 31.285 24.7602C32.025 25.4508 31.67 26.3344 30.87 30.5035H29.02C29.79 26.4715 29.935 26.1363 29.655 25.8316C29.385 25.5371 28.77 25.598 27.285 25.598L26.345 30.5035H24.52L26.155 21.9418ZM37.25 27.3144C36.85 29.4016 35.415 29.1578 33.745 29.1578L34.43 25.5727C36.34 25.5727 37.62 25.3644 37.25 27.3144ZM31.21 32.7887H33.05L33.485 30.5137C35.645 30.5137 36.84 30.6406 37.995 29.5437C39.3 28.325 39.64 26.1566 38.71 25.0699C38.225 24.5012 37.445 24.2219 36.385 24.2219H32.85L31.21 32.7887Z" fill="white"/>
</svg>
