<svg width="57" height="57" viewBox="0 0 57 57" fill="none" xmlns="http://www.w3.org/2000/svg">
<rect x="28.4565" width="40" height="40" transform="rotate(45.35 28.4565 0)" fill="#F8A5C2"/>
<rect x="8.28375" y="8.28372" width="40" height="40" fill="#F8A5C2"/>
<path d="M34 30.58C34.0256 30.5284 34.0389 30.4715 34.0387 30.4139C34.0386 30.3563 34.025 30.2995 33.999 30.248L33.52 29.55C33.511 29.537 33.506 29.522 33.506 29.505C33.506 29.488 33.511 29.473 33.52 29.46L34 28.76C34.0256 28.7084 34.0389 28.6515 34.0387 28.5939C34.0386 28.5363 34.025 28.4795 33.999 28.428C33.9791 28.3738 33.9477 28.3246 33.907 28.2836C33.8662 28.2427 33.8171 28.2111 33.763 28.191L32.94 27.89C32.9248 27.8848 32.9113 27.8757 32.9007 27.8636C32.8902 27.8515 32.883 27.8368 32.88 27.821V26.98C32.8768 26.9205 32.8599 26.8625 32.8306 26.8107C32.8013 26.7588 32.7604 26.7144 32.711 26.681C32.643 26.6345 32.5624 26.6097 32.48 26.61H32.31L31.46 26.83C31.4372 26.8392 31.4118 26.8392 31.389 26.83L30.84 26.18C30.7999 26.1364 30.7512 26.1016 30.697 26.0778C30.6428 26.054 30.5842 26.0418 30.525 26.0418C30.4658 26.0418 30.4072 26.054 30.353 26.0778C30.2988 26.1016 30.2501 26.1364 30.21 26.18L29.66 26.83C29.6372 26.8392 29.6118 26.8392 29.589 26.83H29.59L28.69 26.6H28.582C28.4987 26.5997 28.4172 26.6245 28.348 26.671C28.2991 26.7045 28.2585 26.7488 28.2294 26.8005C28.2003 26.8521 28.1834 26.9098 28.18 26.969V27.81C28.1771 27.8258 28.1702 27.8406 28.1598 27.8529C28.1495 27.8651 28.1361 27.8745 28.121 27.88L27.3 28.18C27.2061 28.1953 27.1207 28.2434 27.0588 28.3157C26.9969 28.388 26.9627 28.4799 26.962 28.575C26.962 28.635 26.976 28.692 27.001 28.742L27.48 29.44C27.489 29.453 27.494 29.468 27.494 29.485C27.494 29.502 27.489 29.517 27.48 29.53L27 30.23C26.9744 30.2816 26.9611 30.3385 26.9613 30.3961C26.9615 30.4537 26.9751 30.5105 27.001 30.562C27.0209 30.6162 27.0523 30.6654 27.0931 30.7063C27.1338 30.7473 27.1829 30.7789 27.237 30.799L28.06 31.1C28.0752 31.1052 28.0888 31.1143 28.0993 31.1264C28.1098 31.1385 28.117 31.1532 28.12 31.169V32.01C28.1232 32.0695 28.1401 32.1275 28.1694 32.1793C28.1987 32.2312 28.2397 32.2756 28.289 32.309C28.3582 32.3555 28.4397 32.3802 28.523 32.38H28.691L29.001 32.31V36L30.531 34L32.001 36V32.31L32.311 32.39H32.429C32.5124 32.3902 32.5939 32.3655 32.663 32.319C32.7119 32.2855 32.7525 32.2412 32.7816 32.1895C32.8108 32.1379 32.8276 32.0802 32.831 32.021V31.18C32.8339 31.1642 32.8408 31.1494 32.8512 31.1371C32.8615 31.1249 32.8749 31.1155 32.89 31.11L33.711 30.81C33.7737 30.7976 33.8325 30.7706 33.8827 30.7312C33.933 30.6917 33.9732 30.6409 34 30.583V30.58Z" fill="white"/>
<path d="M20 21V33H28L27.89 32.95C27.7476 32.8525 27.6294 32.7236 27.5444 32.5733C27.4595 32.4231 27.4101 32.2553 27.4 32.083V32H21V22H35V32H33.57V32.08C33.5603 32.2521 33.5115 32.4197 33.4273 32.5701C33.343 32.7205 33.2257 32.8498 33.084 32.948L33 33H36V21H20Z" fill="white"/>
<path d="M27.43 26.91C27.4333 26.731 27.479 26.5553 27.5635 26.3974C27.648 26.2395 27.7688 26.104 27.916 26.002C27.9438 25.9947 27.9729 25.994 28.001 26H23V27H27.43V26.91Z" fill="white"/>
<path d="M26.42 28H23V29H26.36C26.2911 28.8725 26.2512 28.7314 26.2431 28.5867C26.235 28.4421 26.2589 28.2974 26.313 28.163C26.3289 28.098 26.3667 28.0405 26.42 28Z" fill="white"/>
<path d="M23 24H33V25H23V24Z" fill="white"/>
</svg>
