<svg width="57" height="57" viewBox="0 0 57 57" fill="none" xmlns="http://www.w3.org/2000/svg">
<rect x="28.4565" width="40" height="40" transform="rotate(45.35 28.4565 0)" fill="#F8A5C2"/>
<path d="M31.9583 33.7031C31.2969 33.6424 30.4479 33.5143 29.6275 32.6183V34.4616C31.1348 35.4414 33.7271 35.2616 34.6309 34.084C35.168 33.3841 35.3893 32.4466 34.9917 31.3848C34.0547 29.4974 31.8281 29.3802 31.1806 28.1884C30.4653 26.258 33.4155 25.9092 34.8329 27.2097V25.4769C34.229 25.0868 33.2687 25.0449 32.595 25.0813C30.8172 25.1773 29.6226 26.2103 29.6404 27.749C29.5638 29.897 32.0166 30.45 33.2482 31.444C34.0846 32.1538 34.0247 33.8751 31.9583 33.7031ZM24.9391 34.9341V26.5947H22.2525V25.2157H29.114V26.5947H26.4218V34.9341H24.9391ZM36.75 19.25V36.75H19.25V19.25H36.75ZM38 18H18V38H38V18Z" fill="white"/>
</svg>
